<svg width="24" height="24" viewBox="0 0 24 24" fill="none" xmlns="http://www.w3.org/2000/svg">
<path d="M10.653 0.112807C5.12175 0.705932 0.672741 5.09506 0.0715229 10.4332C-0.529695 16.0086 2.71688 20.9908 7.64687 22.8888C8.0076 23.0074 8.36833 22.7702 8.36833 22.2957V20.3977C8.36833 20.3977 7.88736 20.5163 7.28614 20.5163C5.60273 20.5163 4.88127 19.0928 4.76102 18.2624C4.64078 17.7879 4.40029 17.4321 4.03956 17.0762C3.67883 16.9576 3.55859 16.9576 3.55859 16.8389C3.55859 16.6017 3.91932 16.6017 4.03956 16.6017C4.76102 16.6017 5.36224 17.4321 5.60273 17.7879C6.20395 18.7369 6.92541 18.9742 7.28614 18.9742C7.76711 18.9742 8.12784 18.8556 8.36833 18.7369C8.48857 17.9066 8.84931 17.0762 9.57077 16.6017C6.80516 16.0086 4.76102 14.4664 4.76102 11.8567C4.76102 10.5518 5.36224 9.24693 6.20395 8.29793C6.0837 8.06068 5.96346 7.46756 5.96346 6.63718C5.96346 6.16268 5.96346 5.56956 6.20395 5.09506C6.20395 4.85781 6.44443 4.73918 6.56468 4.73918H6.68492C7.28614 4.85781 8.48857 5.21368 9.57077 6.28131C10.2922 6.04406 11.1339 5.92543 11.9756 5.92543C12.8173 5.92543 13.659 6.04406 14.3805 6.28131C15.4627 5.21368 16.7854 4.85781 17.3866 4.73918H17.5068C17.7473 4.73918 17.8676 4.85781 17.9878 5.09506C17.9878 5.56956 17.9878 6.16268 17.9878 6.63718C17.9878 7.58618 17.8676 8.06068 17.7473 8.29793C18.589 9.24693 19.1903 10.4332 19.1903 11.8567C19.1903 14.4664 17.1461 16.0086 14.3805 16.6017C15.102 17.1948 15.5829 18.2624 15.5829 19.3301V22.4143C15.5829 22.7702 15.9437 23.1261 16.4247 23.0074C20.8737 21.2281 24 16.9576 24 11.9753C24 4.85781 17.8676 -0.717568 10.653 0.112807Z" fill="white"/>
</svg>
