<svg width="24" height="25" viewBox="0 0 24 25" fill="none" xmlns="http://www.w3.org/2000/svg">
<path d="M7.05682 0.530701C3.18324 0.530701 0 3.70968 0 7.58752V17.4739C0 21.3475 3.17898 24.5307 7.05682 24.5307H16.9432C20.8168 24.5307 24 21.3517 24 17.4739V7.58752C24 3.71394 20.821 0.530701 16.9432 0.530701H7.05682ZM7.05682 2.71252H16.9432C19.6406 2.71252 21.8182 4.89008 21.8182 7.58752V17.4739C21.8182 20.1713 19.6406 22.3489 16.9432 22.3489H7.05682C4.35938 22.3489 2.18182 20.1713 2.18182 17.4739V7.58752C2.18182 4.89008 4.35938 2.71252 7.05682 2.71252ZM18.4432 5.09888C17.8935 5.09888 17.4545 5.5378 17.4545 6.08752C17.4545 6.63723 17.8935 7.07616 18.4432 7.07616C18.9929 7.07616 19.4318 6.63723 19.4318 6.08752C19.4318 5.5378 18.9929 5.09888 18.4432 5.09888ZM12 5.98525C8.39915 5.98525 5.45455 8.92985 5.45455 12.5307C5.45455 16.1316 8.39915 19.0762 12 19.0762C15.6009 19.0762 18.5455 16.1316 18.5455 12.5307C18.5455 8.92985 15.6009 5.98525 12 5.98525ZM12 8.16706C14.4247 8.16706 16.3636 10.106 16.3636 12.5307C16.3636 14.9554 14.4247 16.8943 12 16.8943C9.57528 16.8943 7.63636 14.9554 7.63636 12.5307C7.63636 10.106 9.57528 8.16706 12 8.16706Z" fill="white"/>
</svg>
